<svg width="50" height="50" viewBox="0 0 50 50" fill="none" xmlns="http://www.w3.org/2000/svg">
<rect width="50" height="50" rx="5" fill="#25D366"/>
<path d="M12.7276 38.0404L14.0948 31.6927C12.3376 28.9211 11.6521 25.6035 12.1669 22.3623C12.6818 19.1212 14.3616 16.1794 16.8912 14.0887C19.4208 11.998 22.6263 10.9022 25.9064 11.0069C29.1865 11.1115 32.3157 12.4095 34.7068 14.6572C37.098 16.9049 38.5868 19.9479 38.894 23.2152C39.2012 26.4825 38.3055 29.7497 36.3752 32.4037C34.4448 35.0576 31.6124 36.916 28.4093 37.6302C25.2062 38.3443 21.8525 37.8651 18.9776 36.2825L12.7276 38.0404Z" fill="#25D366" stroke="white" stroke-width="3"/>
<path d="M30.7944 26.3215C30.5014 26.1262 30.2084 26.0286 29.9155 26.4192L28.7436 27.9817C28.4506 28.177 28.2553 28.2747 27.8647 28.0793C26.3998 27.2981 24.349 26.4192 22.5912 23.4895C22.4936 23.0989 22.6889 22.9036 22.8842 22.7083L23.7631 21.3411C23.9584 21.1458 23.8608 20.9504 23.7631 20.7551L22.5912 17.9231C22.2983 17.1418 22.0053 17.2395 21.7123 17.2395H20.9311C20.7358 17.2395 20.3451 17.3372 19.9545 17.7278C17.8061 19.8762 18.685 22.9036 20.2475 24.8567C20.5405 25.2473 22.4936 28.7629 26.6928 30.6184C29.8178 31.9856 30.5014 31.7903 31.3803 31.595C32.4545 31.4973 33.5287 30.6184 34.017 29.7395C34.1147 29.4465 34.603 28.177 34.2123 27.9817" fill="white"/>
</svg>
