<?xml version="1.0" encoding="iso-8859-1"?>
<!-- Uploaded to: SVG Repo, www.svgrepo.com, Generator: SVG Repo Mixer Tools -->
<svg version="1.1" id="Layer_1" xmlns="http://www.w3.org/2000/svg" xmlns:xlink="http://www.w3.org/1999/xlink" 
	 viewBox="0 0 512 512" xml:space="preserve">
<polyline style="fill:#F15A24;" points="424.141,216.707 504.208,216.707 504.208,456.909 7.792,456.909 7.792,216.707 
	87.859,216.707 "/>
<g>
	<polygon style="fill:#027EA8;" points="504.208,216.224 424.302,216.224 424.302,256.741 	"/>
	<polygon style="fill:#027EA8;" points="7.792,216.224 87.698,216.224 87.698,256.741 	"/>
</g>
<polygon style="fill:#FBA218;" points="15.799,216.707 256,56.572 496.201,216.707 "/>
<polygon style="fill:#FFFFFF;" points="424.302,256.741 424.302,112.333 87.698,112.333 87.698,256.741 231.98,336.736 
	280.02,336.736 "/>
<polygon style="fill:#F2F2F2;" points="175.933,304.781 87.859,264.748 87.859,112.62 175.933,112.62 "/>
<path d="M431.574,160.574v-55.513h-86.044L256,47.299l-89.528,57.762H80.426v55.514L0,212.462v252.239h512V212.462L431.574,160.574z
	 M80.426,247.071l-41.989-22.536h41.989V247.071z M175.484,315.777L15.584,440.917V229.956L175.484,315.777z M190.483,323.827
	l39.538,21.221h51.958l39.554-21.209L481.61,449.117H30.39L190.483,323.827z M336.536,315.793l159.881-85.73v210.855
	L336.536,315.793z M431.574,224.535h42.175l-42.175,22.615V224.535z M477.814,208.951h-46.239v-29.832L477.814,208.951z M256,65.846
	l60.785,39.215H195.216L256,65.846z M415.991,120.645v134.861l-137.928,73.958h-44.125L96.009,255.435v-134.79H415.991z
	 M80.426,208.951H34.187l46.239-29.832v29.832H80.426z"/>
<rect x="335.991" y="137.27" style="fill:#027EA8;" width="15.584" height="15.584"/>
<rect x="359.886" y="137.27" style="fill:#84DCCF;" width="16.622" height="15.584"/>
<rect x="383.781" y="137.27" style="fill:#027EA8;" width="16.622" height="15.584"/>
<rect x="119.9" y="137.27" width="88.307" height="15.584"/>
<rect x="119.9" y="168.437" style="fill:#027EA8;" width="112.201" height="15.584"/>
<rect x="247.685" y="168.437" style="fill:#84DCCF;" width="40.517" height="15.584"/>
<rect x="119.9" y="200.643" width="200.508" height="15.584"/>
<rect x="335.991" y="200.643" style="fill:#027EA8;" width="64.412" height="15.584"/>
<rect x="119.9" y="232.849" style="fill:#84DCCF;" width="64.412" height="15.584"/>
<rect x="199.895" y="232.849" style="fill:#027EA8;" width="71.684" height="15.584"/>
<rect x="288.202" y="232.849" style="fill:#84DCCF;" width="112.201" height="15.584"/>
<rect x="176" y="265.055" width="159.991" height="15.584"/>
<rect x="215.479" y="297.261" style="fill:#84DCCF;" width="16.622" height="15.584"/>
<rect x="247.685" y="297.261" style="fill:#027EA8;" width="48.828" height="15.584"/>
<rect x="247.685" y="416.735" style="fill:#FFFFFF;" width="16.622" height="15.584"/>
<rect x="223.79" y="416.735" width="16.622" height="15.584"/>
<rect x="271.579" y="416.735" width="16.622" height="15.584"/>
<g>
	<rect x="167.689" y="416.735" style="fill:#FFFFFF;" width="40.517" height="15.584"/>
	<rect x="303.785" y="416.735" style="fill:#FFFFFF;" width="40.517" height="15.584"/>
</g>
</svg>